<svg width="99" height="41" viewBox="0 0 99 41" fill="none" xmlns="http://www.w3.org/2000/svg">
<path d="M42.6032 29.8104L40.4955 24.9546H31.9143L29.7163 29.8104H26.4043L36.4007 8.51709L45.9153 29.8104L42.6032 29.8104ZM33.1789 22.0592H39.2611L36.2802 15.2429L33.1789 22.0592Z" fill="white"/>
<path d="M61.8206 9.69335L51.9447 26.915H61.5797V29.8104H46.9465L56.8224 12.5888L48.5724 12.5888V9.69335L61.8206 9.69335Z" fill="white"/>
<path d="M79.0345 29.8104L76.9269 24.9546H68.3457L66.1477 29.8104H62.8356L72.832 8.51709L82.3466 29.8104H79.0345ZM69.6103 22.0592L75.6924 22.0592L72.7115 15.2429L69.6103 22.0592Z" fill="white"/>
<path d="M84.8833 9.69335H88.4663C90.835 9.69335 92.6014 10.0854 93.7656 10.8696C95.3514 11.9353 96.1443 13.5137 96.1443 15.6048C96.1443 17.0324 95.7328 18.2489 94.9098 19.2542C94.1068 20.2596 93.033 20.9131 91.6881 21.2147L97.9508 29.8104H94.2474L88.4965 21.5766H87.9545V29.8104H84.8833V9.69335ZM87.9545 12.5284V18.9225H88.918C89.1789 18.9225 89.4399 18.9124 89.7008 18.8923C89.9618 18.8722 90.3131 18.8018 90.7547 18.6812C91.2163 18.5605 91.6078 18.3997 91.9289 18.1986C92.2702 17.9774 92.5612 17.6457 92.8021 17.2033C93.0631 16.761 93.1935 16.2382 93.1935 15.635C93.1935 13.5639 91.7985 12.5284 89.0083 12.5284L87.9545 12.5284Z" fill="white"/>
<path d="M27.2539 34.3776H27.8615V39.7881H27.2539V34.3776Z" fill="white"/>
<path d="M30.0382 39.7881H29.4141L30.3255 34.0774L32.4275 38.6444L34.5706 34.0693L35.4245 39.7881H34.8005L34.2832 36.0243L32.4193 40.0152L30.5801 36.0243L30.0382 39.7881Z" fill="white"/>
<path d="M37.4549 39.7881H36.8309L37.7423 34.0774L39.8443 38.6444L41.9873 34.0693L42.8413 39.7881H42.2172L41.6999 36.0243L39.8361 40.0152L37.9968 36.0243L37.4549 39.7881Z" fill="white"/>
<path d="M44.4365 34.3776H45.0441V39.7881H44.4365V34.3776Z" fill="white"/>
<path d="M49.6101 37.6385V37.0707H51.8927V37.2005C51.8927 37.871 51.7176 38.4416 51.3672 38.912C50.8801 39.561 50.2013 39.8855 49.3309 39.8855C48.5208 39.8855 47.8448 39.6178 47.3028 39.0824C46.7609 38.5416 46.49 37.8764 46.49 37.0869C46.49 36.2974 46.7609 35.6349 47.3028 35.0995C47.8502 34.5587 48.5317 34.2884 49.3474 34.2884C49.9933 34.2884 50.5516 34.4668 51.0224 34.8237C51.2632 35.0076 51.474 35.2212 51.6546 35.4646L51.203 35.8701C51.0443 35.6484 50.8718 35.4619 50.6857 35.3104C50.308 35.0076 49.8646 34.8562 49.3556 34.8562C48.7042 34.8562 48.1677 35.0698 47.7462 35.497C47.3247 35.9242 47.114 36.4569 47.114 37.095C47.114 37.5601 47.2289 37.9684 47.4589 38.3199C47.6888 38.666 47.9679 38.9202 48.2964 39.0824C48.6303 39.2392 48.9779 39.3176 49.3391 39.3176C49.7004 39.3176 50.0289 39.2365 50.3244 39.0743C50.6255 38.9066 50.8554 38.6849 51.0142 38.4091C51.151 38.1766 51.2249 37.9197 51.2359 37.6385H49.6101Z" fill="white"/>
<path d="M53.3363 34.3776H54.2149C54.8061 34.3776 55.2494 34.4776 55.545 34.6777C55.9446 34.9427 56.1444 35.3429 56.1444 35.8783C56.1444 36.2947 56.0158 36.6408 55.7585 36.9166C55.5067 37.1924 55.1755 37.3438 54.765 37.3708L56.5057 39.7881H55.7667L54.0999 37.4195H53.9439V39.7881H53.3363V34.3776ZM53.9439 34.9454V36.8841H54.3298C54.7075 36.8841 55.0031 36.7976 55.2166 36.6245C55.4301 36.4515 55.5368 36.2081 55.5368 35.8945C55.5368 35.5267 55.3918 35.2618 55.1016 35.0995C54.9155 34.9968 54.6528 34.9454 54.3134 34.9454H53.9439Z" fill="white"/>
<path d="M61.4483 39.7881L60.8078 38.2631H58.4759L57.8191 39.7881H57.1458L59.6665 34.118L62.1216 39.7881H61.4483ZM58.7141 37.6953H60.5697L59.6501 35.5294L58.7141 37.6953Z" fill="white"/>
<path d="M63.83 39.7881H63.2224V34.1505L67.4921 38.5713V34.3776H68.0997V40.0315L63.83 35.6106V39.7881Z" fill="white"/>
<path d="M72.5141 34.9454H71.1839V39.7881H70.5763V34.9454H69.2461V34.3776H72.5141V34.9454Z" fill="white"/>
<path d="M78.7312 37.6385V37.0707H81.0138V37.2005C81.0138 37.871 80.8386 38.4416 80.4883 38.912C80.0011 39.561 79.3224 39.8855 78.452 39.8855C77.6419 39.8855 76.9658 39.6178 76.4239 39.0824C75.882 38.5416 75.611 37.8764 75.611 37.0869C75.611 36.2974 75.882 35.6349 76.4239 35.0995C76.9713 34.5587 77.6528 34.2884 78.4684 34.2884C79.1144 34.2884 79.6727 34.4668 80.1434 34.8237C80.3843 35.0076 80.5951 35.2212 80.7757 35.4646L80.3241 35.8701C80.1653 35.6484 79.9929 35.4619 79.8068 35.3104C79.4291 35.0076 78.9857 34.8562 78.4766 34.8562C77.8252 34.8562 77.2888 35.0698 76.8673 35.497C76.4458 35.9242 76.2351 36.4569 76.2351 37.095C76.2351 37.5601 76.35 37.9684 76.5799 38.3199C76.8098 38.666 77.089 38.9202 77.4174 39.0824C77.7513 39.2392 78.0989 39.3176 78.4602 39.3176C78.8215 39.3176 79.1499 39.2365 79.4455 39.0743C79.7466 38.9066 79.9765 38.6849 80.1352 38.4091C80.2721 38.1766 80.346 37.9197 80.3569 37.6385H78.7312Z" fill="white"/>
<path d="M83.065 34.3776V37.6953C83.065 37.9008 83.0677 38.0603 83.0732 38.1739C83.0841 38.2874 83.1225 38.428 83.1881 38.5957C83.2593 38.7579 83.3633 38.8958 83.5002 39.0094C83.7465 39.2149 84.0476 39.3176 84.4034 39.3176C84.7592 39.3176 85.0602 39.2149 85.3066 39.0094C85.4434 38.8958 85.5447 38.7579 85.6104 38.5957C85.6815 38.428 85.7198 38.2874 85.7253 38.1739C85.7363 38.0603 85.7417 37.9008 85.7417 37.6953V34.3776H86.3493V37.8575C86.3493 38.4091 86.2344 38.8417 86.0045 39.1554C85.8348 39.3825 85.6104 39.561 85.3312 39.6908C85.0575 39.8206 84.7482 39.8855 84.4034 39.8855C84.0585 39.8855 83.7465 39.8206 83.4673 39.6908C83.1936 39.561 82.9719 39.3825 82.8022 39.1554C82.5723 38.8417 82.4574 38.4091 82.4574 37.8575V34.3776H83.065Z" fill="white"/>
<path d="M88.094 34.3776H88.7016V39.7881H88.094V34.3776Z" fill="white"/>
<path d="M90.4431 39.7881V34.3776H91.5598C92.4028 34.3776 93.0761 34.5885 93.5797 35.0103C94.2037 35.524 94.5157 36.2162 94.5157 37.0869C94.5157 37.9305 94.1955 38.6227 93.555 39.1635C93.2923 39.3852 93.0104 39.5448 92.7093 39.6421C92.4082 39.7394 92.0223 39.7881 91.5516 39.7881H90.4431ZM91.0507 34.9454V39.2203H91.5844C92.2358 39.2203 92.7586 39.0581 93.1527 38.7336C93.6454 38.3226 93.8917 37.7737 93.8917 37.0869C93.8917 36.438 93.6809 35.9188 93.2594 35.5294C92.838 35.1401 92.2796 34.9454 91.5844 34.9454H91.0507Z" fill="white"/>
<path d="M98.8004 34.3776V34.9454H96.5671V36.5515H98.7348V37.1193H96.5671V39.2203H98.8004V39.7881H95.9595V34.3776H98.8004Z" fill="white"/>
<path d="M0 2.72554C0 1.22027 1.22028 0 2.72558 0L21.1233 0C22.6286 0 23.8488 1.22027 23.8488 2.72554V38.1576C23.8488 39.6629 22.6286 40.8832 21.1233 40.8832H2.72558C1.22028 40.8832 0 39.6629 0 38.1576L0 2.72554Z" fill="white"/>
<path d="M6.81445 9.36914H9.8405C11.1987 9.36914 12.2973 9.48151 13.1362 9.70626C13.9751 9.931 14.7141 10.3498 15.3533 10.9628C16.4119 11.9844 16.9412 13.3328 16.9412 15.0082C16.9412 15.9685 16.7415 16.7755 16.342 17.4293C15.9825 18.0627 15.4831 18.5326 14.844 18.8391C15.8826 19.1047 16.7415 19.595 17.4206 20.3101C18.2994 21.25 18.7389 22.5269 18.7389 24.141C18.7389 25.6325 18.2994 26.8584 17.4206 27.8187C16.1822 29.1467 14.3147 29.8107 11.8179 29.8107H6.81445L6.81445 9.36914ZM9.87046 12.3113V18.1648H10.7992C11.9178 18.1648 12.7467 17.8992 13.286 17.368C13.8053 16.8572 14.065 16.0808 14.065 15.0388C14.065 14.2012 13.8253 13.5474 13.3459 13.0774C12.8266 12.5666 12.0177 12.3113 10.9191 12.3113H9.87046ZM9.87046 20.7392V26.8686H11.728C13.1062 26.8686 14.1149 26.603 14.7541 26.0718C15.4132 25.5406 15.7428 24.7846 15.7428 23.8039C15.7428 22.9253 15.4731 22.2102 14.9338 21.6586C14.3147 21.0457 13.266 20.7392 11.788 20.7392H9.87046Z" fill="black"/>
</svg>
