<svg width="48" height="48" viewBox="0 0 48 48" fill="none" xmlns="http://www.w3.org/2000/svg">
<rect width="48" height="48" rx="12" fill="white"/>
<path d="M29.8333 29.833H18.1667V20.6663H29.8333M29.8333 16.4997H29V14.833H27.3333V16.4997H20.6667V14.833H19V16.4997H18.1667C17.7246 16.4997 17.3007 16.6753 16.9882 16.9878C16.6756 17.3004 16.5 17.7243 16.5 18.1663V29.833C16.5 30.275 16.6756 30.699 16.9882 31.0115C17.3007 31.3241 17.7246 31.4997 18.1667 31.4997H29.8333C30.2754 31.4997 30.6993 31.3241 31.0118 31.0115C31.3244 30.699 31.5 30.275 31.5 29.833V18.1663C31.5 17.7243 31.3244 17.3004 31.0118 16.9878C30.6993 16.6753 30.2754 16.4997 29.8333 16.4997ZM27.775 23.2163L26.8917 22.333L22.825 26.3997L21.0583 24.633L20.175 25.5163L22.825 28.1663L27.775 23.2163Z" fill="#23283C"/>
</svg>
