<svg width="32" height="32" viewBox="0 0 32 32" fill="none" xmlns="http://www.w3.org/2000/svg">
<path d="M14.1194 17.8803C14.666 18.4003 14.666 19.2537 14.1194 19.7737C13.5994 20.2937 12.746 20.2937 12.226 19.7737C10.9772 18.523 10.2758 16.8278 10.2758 15.0603C10.2758 13.2929 10.9772 11.5977 12.226 10.347L16.946 5.62701C18.1967 4.37818 19.8919 3.67676 21.6594 3.67676C23.4268 3.67676 25.122 4.37818 26.3727 5.62701C27.6215 6.87772 28.323 8.57291 28.323 10.3403C28.323 12.1078 27.6215 13.803 26.3727 15.0537L24.386 17.0403C24.3994 15.947 24.226 14.8537 23.8527 13.8137L24.4794 13.1737C24.8532 12.8039 25.1499 12.3637 25.3524 11.8785C25.5549 11.3933 25.6592 10.8728 25.6592 10.347C25.6592 9.82125 25.5549 9.3007 25.3524 8.81551C25.1499 8.33031 24.8532 7.8901 24.4794 7.52035C24.1096 7.14656 23.6694 6.84982 23.1842 6.64731C22.699 6.44479 22.1785 6.34051 21.6527 6.34051C21.1269 6.34051 20.6064 6.44479 20.1212 6.64731C19.636 6.84982 19.1958 7.14656 18.826 7.52035L14.1194 12.227C13.7456 12.5968 13.4488 13.037 13.2463 13.5222C13.0438 14.0074 12.9395 14.5279 12.9395 15.0537C12.9395 15.5794 13.0438 16.1 13.2463 16.5852C13.4488 17.0704 13.7456 17.5106 14.1194 17.8803ZM17.8794 12.227C18.3994 11.707 19.2527 11.707 19.7727 12.227C21.0215 13.4777 21.723 15.1729 21.723 16.9403C21.723 18.7078 21.0215 20.403 19.7727 21.6537L15.0527 26.3737C13.802 27.6225 12.1068 28.3239 10.3394 28.3239C8.57193 28.3239 6.87674 27.6225 5.62604 26.3737C4.37721 25.123 3.67578 23.4278 3.67578 21.6603C3.67578 19.8929 4.37721 18.1977 5.62604 16.947L7.6127 14.9603C7.59937 16.0537 7.7727 17.147 8.14604 18.2003L7.51937 18.827C7.14559 19.1968 6.84885 19.637 6.64633 20.1222C6.44381 20.6074 6.33953 21.1279 6.33953 21.6537C6.33953 22.1794 6.44381 22.7 6.64633 23.1852C6.84885 23.6704 7.14559 24.1106 7.51937 24.4803C7.88912 24.8541 8.32933 25.1509 8.81453 25.3534C9.29973 25.5559 9.82027 25.6602 10.346 25.6602C10.8718 25.6602 11.3923 25.5559 11.8775 25.3534C12.3627 25.1509 12.803 24.8541 13.1727 24.4803L17.8794 19.7737C18.2532 19.4039 18.5499 18.9637 18.7524 18.4785C18.9549 17.9933 19.0592 17.4728 19.0592 16.947C19.0592 16.4212 18.9549 15.9007 18.7524 15.4155C18.5499 14.9303 18.2532 14.4901 17.8794 14.1203C17.7499 13.999 17.6467 13.8524 17.5761 13.6896C17.5055 13.5267 17.4691 13.3511 17.4691 13.1737C17.4691 12.9962 17.5055 12.8206 17.5761 12.6578C17.6467 12.495 17.7499 12.3484 17.8794 12.227Z" fill="white" fill-opacity="0.7"/>
</svg>
