<svg width="48" height="48" viewBox="0 0 48 48" fill="none" xmlns="http://www.w3.org/2000/svg">
<rect width="48" height="48" rx="12" fill="white"/>
<path d="M23.9993 19.417C24.5519 19.417 25.0818 19.6365 25.4725 20.0272C25.8632 20.4179 26.0827 20.9478 26.0827 21.5003C26.0827 21.7739 26.0288 22.0448 25.9241 22.2976C25.8194 22.5503 25.6659 22.78 25.4725 22.9735C25.279 23.1669 25.0494 23.3204 24.7966 23.4251C24.5438 23.5298 24.2729 23.5837 23.9993 23.5837C23.4468 23.5837 22.9169 23.3642 22.5262 22.9735C22.1355 22.5828 21.916 22.0529 21.916 21.5003C21.916 20.9478 22.1355 20.4179 22.5262 20.0272C22.9169 19.6365 23.4468 19.417 23.9993 19.417ZM23.9993 15.667C25.5464 15.667 27.0302 16.2816 28.1241 17.3755C29.2181 18.4695 29.8327 19.9532 29.8327 21.5003C29.8327 25.8753 23.9993 32.3337 23.9993 32.3337C23.9993 32.3337 18.166 25.8753 18.166 21.5003C18.166 19.9532 18.7806 18.4695 19.8746 17.3755C20.9685 16.2816 22.4523 15.667 23.9993 15.667ZM23.9993 17.3337C22.8943 17.3337 21.8345 17.7726 21.0531 18.554C20.2717 19.3354 19.8327 20.3953 19.8327 21.5003C19.8327 22.3337 19.8327 24.0003 23.9993 29.592C28.166 24.0003 28.166 22.3337 28.166 21.5003C28.166 20.3953 27.727 19.3354 26.9456 18.554C26.1642 17.7726 25.1044 17.3337 23.9993 17.3337Z" fill="#23283C"/>
</svg>
