<svg width="24" height="24" viewBox="0 0 24 24" fill="none" xmlns="http://www.w3.org/2000/svg">
<path fill-rule="evenodd" clip-rule="evenodd" d="M15.5647 7.54478C16.0274 7.54478 16.4129 7.93035 16.4129 8.39303C16.4129 8.85572 16.0274 9.24129 15.5647 9.24129C15.102 9.24129 14.7164 8.85572 14.7164 8.39303C14.7164 7.93035 15.102 7.54478 15.5647 7.54478ZM11.9403 8.47015C13.8682 8.47015 15.4104 10.0124 15.4104 11.9403C15.4104 13.8682 13.8682 15.4104 11.9403 15.4104C10.0124 15.4104 8.47015 13.8682 8.47015 11.9403C8.47015 10.0124 10.0124 8.47015 11.9403 8.47015ZM11.9403 10.2438C11.0149 10.2438 10.2438 11.0149 10.2438 11.9403C10.2438 12.8657 11.0149 13.6368 11.9403 13.6368C12.8657 13.6368 13.6368 12.8657 13.6368 11.9403C13.6368 11.0149 12.8657 10.2438 11.9403 10.2438ZM15.4104 18.8806H8.47015C6.69652 18.8806 5 17.1841 5 15.4104V8.47015C5 6.69652 6.69652 5 8.47015 5H15.4104C17.1841 5 18.8806 6.69652 18.8806 8.47015V15.4104C18.8806 17.1841 17.1841 18.8806 15.4104 18.8806ZM8.47015 6.69652C7.62189 6.69652 6.77363 7.62189 6.77363 8.39303V15.3333C6.77363 16.1816 7.699 17.0299 8.47015 17.0299H15.4104C16.2587 17.0299 17.107 16.1045 17.107 15.3333V8.39303C17.107 7.54478 16.1816 6.69652 15.4104 6.69652H8.47015Z" fill="white"/>
</svg>
