<svg width="370" height="278" viewBox="0 0 370 278" fill="none" xmlns="http://www.w3.org/2000/svg">
<path fill-rule="evenodd" clip-rule="evenodd" d="M162.235 121.434C158.946 123.822 159.47 128.521 160.46 131.935C161.917 136.962 164.821 141.615 168.132 145.626C174.008 152.742 183.982 160.732 193.177 154.485C201.364 148.921 206.529 137.695 208.312 128.239C208.863 125.317 209.597 120.962 207.008 118.766C203.181 115.518 196.429 116.109 191.809 116.527C188.766 116.802 185.831 117.737 182.824 117.298C175.837 116.278 168.062 117.202 162.235 121.434Z" fill="#FF4136"/>
<path fill-rule="evenodd" clip-rule="evenodd" d="M303.885 158.672C297.224 167.137 285.899 168.474 275.841 168.391C269.801 168.341 263.75 167.886 257.829 166.653C254.636 165.988 251.466 165.107 248.381 164.049C246.344 163.35 243.311 163.001 242.444 160.814C240.157 155.044 241.839 147.807 242.781 141.951C243.26 138.971 243.62 135.975 244.086 132.993C244.384 131.086 244.527 128.975 245.325 127.191C246.259 125.1 247.439 125.518 249.415 126.095C252.138 126.891 254.933 127.222 257.732 127.651C264.564 128.696 270.524 130.803 276.733 133.79C282.872 136.743 288.827 139.659 294.303 143.765C297.077 145.846 299.467 148.105 301.695 150.757C303.415 152.806 305.983 156.005 303.885 158.672ZM274.767 196.27C274.714 197.182 264.274 194.43 262.901 194.121C253.887 192.096 244.694 189.789 236.184 186.129C228.241 182.714 221.243 178.806 214.992 172.737C212.079 169.908 209.458 166.93 206.95 163.757C205.694 162.167 203.977 162.352 202.575 161.007C201.314 159.796 200.347 158.85 200.742 157.04C203.892 157.872 209.708 163.099 212.974 160.459C214.835 158.955 212.254 157.383 211.062 156.512C208.822 154.872 206.906 152.85 205.125 150.727C208.183 151.321 211.029 152.468 213.69 154.065C214.873 154.775 218.925 157.347 219.869 154.895C220.449 153.385 217.701 151.488 216.845 150.653C214.741 148.602 212.47 146.208 211.353 143.451C214.114 142.809 216.717 144.947 218.598 146.688C220.686 148.622 223.244 150.651 224.995 152.879C225.898 154.028 226.095 155.386 226.8 156.625C227.594 158.02 228.863 159.215 230.077 160.246C232.415 162.235 235.15 163.699 237.956 164.909C244.37 167.676 251.245 169.634 258.082 171.007C261.436 171.681 264.707 171.991 268.112 172.106C270.757 172.195 271.928 172.987 272.938 175.429C275.672 182.038 275.176 189.307 274.767 196.27ZM196.258 145.919C194.728 147.353 192.74 148.252 191.141 149.631C189.734 150.844 188.111 152.138 186.541 153.119C184.865 154.166 183.612 153.431 182.103 152.484C180.331 151.373 178.294 150.922 176.469 149.928C170.159 146.487 162.439 138.057 163.617 130.317C164.116 127.036 165.81 123.808 168.884 122.319C171.676 120.968 175.735 120.217 178.723 121.347C180.408 121.985 181.613 123.392 182.693 124.775C183.952 126.388 184.434 126.134 185.716 124.578C188.01 121.796 191.793 119.355 195.534 119.413C197.392 119.443 199.239 119.835 200.913 120.608C201.14 120.713 201.266 121.03 201.494 121.138C201.774 121.27 202.233 120.995 202.427 121.119C202.918 121.43 203.407 122.401 203.69 122.894C204.824 124.871 206.867 128.75 204.809 130.415C204.807 130.415 204.9 132.668 204.872 132.924C204.727 134.268 204.263 135.377 203.666 136.606C201.872 140.297 199.224 143.139 196.258 145.919ZM199.308 177.15C197.859 177.602 196.298 173.052 197.688 172.326C199.013 171.634 200.62 176.742 199.308 177.15ZM176.548 171.711C176.046 173.429 175.834 175.38 174.607 176.778C173.483 175.443 173.373 172.978 174.462 171.605C175.085 170.821 177.097 169.833 176.548 171.711ZM222.919 141.601C222.911 141.645 224.663 142.484 223.809 143.402C222.641 144.655 222.801 142.216 222.919 141.601ZM230.158 127.596C230.139 129.333 226.467 128.914 226.493 127.166C226.525 125.015 230.18 125.753 230.158 127.596ZM225.776 113.073C226.139 111.482 232.526 109.269 232.352 112.042C232.265 113.432 225.005 116.456 225.776 113.073ZM160.301 167.024C159.585 167.886 158.568 168.226 157.71 168.888C156.81 169.582 156.167 170.482 155.381 171.296C153.223 173.532 150.624 175.369 148.296 177.423C144.015 181.198 139.914 185.257 135.167 188.458C126.685 194.179 116.849 197.309 107.084 200.049C106.275 200.276 103.945 201.192 103.144 200.509C102.281 199.773 102.72 197.184 102.76 196.205C102.922 192.19 103.389 188.128 103.338 184.119C103.318 182.473 102.836 180.132 103.694 178.626C104.651 176.943 107.325 176.451 108.978 175.818C114.005 173.893 118.846 170.646 123.286 167.64C128.744 163.943 134.256 160.186 139.873 156.735C145.376 153.355 151.446 151.091 157.584 149.16C157.868 149.759 154.939 151.685 154.604 151.955C152.999 153.25 151.252 154.593 150.06 156.303C149.216 157.513 148.35 160.252 150.68 160.322C151.81 160.356 153.48 159.261 154.504 158.907C156.196 158.322 157.939 157.912 159.709 157.645C158.188 159.323 153.031 162.338 153.969 165.128C154.879 167.837 160.145 164.676 161.957 164.676C161.66 165.621 160.914 166.287 160.301 167.024ZM98.0934 174.583C94.7212 175.771 91.2647 176.447 87.7844 177.214C84.467 177.945 81.4008 178.496 78.0029 178.068C73.3118 177.477 68.1202 175.53 67.5254 170.19C66.8201 163.863 71.2807 158.048 75.1108 153.509C79.7723 147.985 85.0065 143.048 90.6794 138.577C96.3457 134.11 102.462 130.172 108.869 126.848C113.744 124.319 119.25 122.783 124.404 120.885C125.385 120.524 128.097 119.256 129.014 120.307C129.755 121.157 128.746 122.574 128.409 123.363C127.749 124.902 127.659 126.452 127.489 128.104C126.729 135.485 125.814 142.862 125.393 150.274C125.276 152.34 125.069 154.501 125.189 156.568C125.256 157.713 125.851 159.171 125.455 160.288C124.693 162.437 121.207 163.859 119.359 164.819C116.051 166.538 112.549 167.82 109.207 169.463C105.537 171.268 101.963 173.219 98.0934 174.583ZM144.861 126.63C145.787 126.503 147.173 126.25 147.998 126.851C149.074 127.634 148.792 128.724 147.798 129.292C147.013 129.742 145.176 129.864 144.401 129.457C143.08 128.763 143.304 126.845 144.861 126.63ZM149.987 143.719C149.239 144.967 146.506 145.786 146.744 143.457C146.948 141.463 151.365 141.421 149.987 143.719ZM148.972 108.561C150.175 109.027 152.357 109.426 152.714 110.976C153.045 112.418 151.681 112.323 150.697 111.926C149.887 111.6 146.28 108.536 148.972 108.561ZM337.367 163.577C336.665 160.839 337.199 157.808 336.812 155.004C336.436 152.286 335.759 149.788 334.789 147.226C332.639 141.555 330.176 136.449 326.692 131.472C320.13 122.098 312.516 113.842 303.323 106.995C294.247 100.236 284.197 94.7434 273.55 90.8938C262.261 86.811 250.897 85.3902 238.991 84.6076C235.436 84.3741 231.884 84.0972 228.349 83.6473C225.765 83.3186 222.526 82.9136 219.971 83.7063C218.367 84.2047 217.47 85.6067 219.218 86.5268C220.458 87.1791 222.081 87.2573 223.45 87.4307C221.796 92.6939 219.105 97.9755 214.841 101.6C210.677 105.138 205.107 106.351 199.852 107.248C197.003 107.734 193.813 108.111 190.92 107.901C189.091 107.769 187.663 106.92 186.925 108.808C186.413 110.119 186.171 111.558 185.495 109.578C184.697 107.237 184.305 107.252 181.821 106.587C176.74 105.227 170.915 103.987 166.483 101.046C161.885 97.9954 160.286 93.0602 157.718 88.4645C157.084 87.3286 155.168 85.0297 156.147 83.728C157.042 82.5378 159.952 82.6566 161.284 82.5324C162.691 82.4014 164.106 82.3959 165.517 82.3409C166.334 82.3094 167.978 82.645 167.649 81.4218C167.153 79.5783 161.837 79.8147 160.517 79.7846C158.062 79.7296 155.574 79.7864 153.131 80.0568C141.02 81.3987 128.801 83.8797 117.081 87.1882C94.3436 93.6068 72.3221 105.434 55.7284 122.473C39.8 138.829 34.7537 166.047 44.5457 186.93C49.6346 197.784 60.6783 202.243 71.3837 205.843C77.0305 207.742 83.0098 209.228 89.0125 208.87C91.893 208.698 94.6261 207.921 97.4355 207.336C98.6607 207.08 100.055 206.673 101.314 206.776C102.266 206.853 103.181 207.729 104.075 207.264C104.709 206.933 104.985 205.985 105.76 205.581C106.691 205.096 107.819 204.921 108.824 204.677C111.617 203.997 114.322 202.894 117.053 201.991C119.876 201.056 122.541 199.852 125.251 198.635C126.618 198.02 129.784 195.521 130.676 197.348C131.082 198.182 130.909 199.79 131.008 200.665C131.181 202.194 131.385 203.721 131.608 205.244C132.099 208.597 132.686 211.937 133.288 215.273C134.375 221.291 135.775 227.052 138.117 232.713C139.986 237.233 141.627 242.357 145.099 245.953C146.614 247.522 148.682 248.228 150.856 247.735C153.328 247.174 154.559 244.924 156.059 243.105C159.362 239.102 164.814 236.035 169.848 234.931C176.013 233.579 182.018 235.556 187.902 237.237C194.127 239.015 200.463 240.709 206.573 242.846C212.266 244.838 218.413 247.78 224.587 247.524C229.972 247.301 235.001 242.911 238.884 239.565C242.784 236.204 247.66 231.283 253.268 231.679C256.052 231.876 258.59 233.221 261.302 233.768C264.28 234.369 267.448 234.454 270.476 234.678C274.235 234.956 282.644 233.974 284.034 229.445C284.241 228.772 284.242 227.388 283.356 227.12C282.541 226.873 282.125 227.827 281.353 227.783C279.782 227.695 278.555 224.951 277.692 223.889C274.21 219.601 269.433 216.403 265.526 212.53C261.114 208.156 257.347 202.857 254.022 197.631C255.526 197.24 257.147 197.89 258.602 198.198C260.369 198.573 262.092 199.027 263.833 199.507C265.753 200.037 267.7 200.401 269.648 200.804C271.102 201.105 273.032 201.196 274.343 201.926C275.489 202.564 276.128 203.249 277.55 203.434C278.996 203.622 280.481 203.463 281.934 203.454C285.863 203.427 289.784 203.354 293.695 202.938C307.513 201.467 322.161 195.612 330.471 183.991C332.73 180.83 334.551 177.329 335.702 173.613C336.6 170.712 338.148 166.623 337.367 163.577Z" fill="white"/>
<path fill-rule="evenodd" clip-rule="evenodd" d="M177.45 63.0709C174.991 63.8354 172.085 62.9358 170.671 60.7368C169.234 58.5009 168.25 55.9134 168.052 53.25C167.863 50.698 168.441 48.1142 169.944 46.0191C171.542 43.7904 174.801 41.2924 177.722 42.0663C178.337 42.2295 178.894 42.6223 179.446 43.0121C180.031 43.4255 180.612 43.8357 181.252 43.9638C181.417 43.9967 181.532 44.0279 181.618 44.0507C181.734 44.0818 181.796 44.0984 181.851 44.0858C181.914 44.0713 181.968 44.0188 182.085 43.9062C182.151 43.8418 182.238 43.7578 182.358 43.6503C182.605 43.4291 182.844 43.0961 183.077 42.7703H183.077C183.234 42.5513 183.389 42.3352 183.542 42.159C183.838 41.8198 184.132 41.477 184.428 41.1335C186.328 38.9254 188.264 36.675 190.585 34.9285C195.397 31.3098 201.791 29.6007 207.76 29.6856C211.391 29.7371 214.795 30.8159 218.179 32.0423C218.463 32.1452 218.748 32.2474 219.035 32.3499L219.036 32.3503C221.754 33.3219 224.556 34.324 226.733 36.2706C231.061 40.1427 232.188 46.5537 232.896 52.0385C233.663 57.9782 231.55 63.0882 229.361 68.3822V68.3829L229.36 68.384V68.3844C229.027 69.1901 228.692 69.9999 228.366 70.8172C226.052 76.6085 221.804 81.3001 216.756 84.875C214.11 86.7476 211.187 87.878 208.129 88.8691C207.495 89.0747 206.864 89.2948 206.234 89.5145H206.234H206.233C203.78 90.3702 201.335 91.2231 198.69 91.2191C193.642 91.2118 187.18 88.8101 185.03 83.8282C184.051 81.5597 185.004 81.1524 186.963 82.3853C187.305 82.6007 187.646 82.8183 187.987 83.0355V83.0358H187.987L187.988 83.0369C190.475 84.6231 192.945 86.1999 195.865 86.8974C202.305 88.4365 210.019 86.0522 215.666 82.9059C221.311 79.7606 225.101 75.0354 227.634 69.1521C230.19 63.2164 231.182 57.3675 230.197 50.9688C229.362 45.546 227.7 40.5927 222.823 37.6491C212.293 31.2952 198.105 31.8072 188.741 40.0646C187.456 41.1965 186.187 42.298 184.864 43.3792C184.022 44.0662 183.032 44.8905 183.154 46.0785C183.181 46.3405 183.344 46.7956 183.528 47.3056C184.057 48.7767 184.752 50.7085 182.816 49.8141C182.018 49.4452 181.357 48.9432 180.706 48.4483C179.634 47.6332 178.587 46.8375 176.993 46.6906C174.268 46.4386 171.017 48.5359 170.201 51.1759C169.424 53.6949 170.81 57.1413 172.982 58.5859C174.204 59.3989 175.538 59.3591 176.917 59.3179C177.056 59.3139 177.195 59.3095 177.335 59.3063C177.441 59.3037 177.574 59.2969 177.725 59.2889C178.653 59.2397 180.274 59.1542 180.705 59.8445C181.593 61.2646 178.461 62.757 177.45 63.0709ZM210.258 74.3078C210.72 73.3988 211.176 72.5001 211.693 71.6878C211.933 71.311 212.324 71.0507 212.698 70.8013H212.699C212.806 70.7296 212.913 70.6587 213.014 70.5863C214.277 72.5576 213.029 74.6694 211.954 76.488C211.83 76.699 211.707 76.9061 211.592 77.1084C211.252 77.7021 210.92 78.3203 210.585 78.944C209.87 80.2765 209.141 81.6328 208.297 82.8251C206.238 85.7311 201.759 82.5873 201.626 79.6006C201.524 77.3144 203.141 78.3095 204.178 79.1634C205.246 80.043 205.752 80.262 206.872 79.3013C208.377 78.0097 209.328 76.1379 210.258 74.3078ZM198.133 66.2548C198.586 63.2562 196.537 65.5848 196.099 66.9639C195.557 68.6656 195.11 71.0691 195.928 72.7578C197.431 75.8574 201.667 74.3802 203.706 72.7335C204.662 71.9614 206.002 70.3532 205.956 69.0127C205.877 66.6805 204.084 68.0788 202.98 68.9389H202.98C202.84 69.0486 202.71 69.1496 202.597 69.2328C202.551 69.2665 202.502 69.3023 202.451 69.34C201.428 70.0972 199.395 71.602 198.203 70.8574C197.108 70.1736 197.547 68.5494 197.892 67.2716C197.996 66.8905 198.09 66.5401 198.133 66.2548ZM204.195 54.1615C206.614 53.6789 209.729 53.9276 211.834 55.3017C214.546 57.0718 210.98 58.3463 209.436 58.5049C207.566 58.696 205.175 58.8227 203.458 57.9036C201.023 56.6008 201.835 54.6328 204.195 54.1615ZM176.574 49.6668C174.724 49.3066 172.143 50.242 173.416 52.4457C174.367 54.0905 176.708 54.644 178.54 55.0773C178.763 55.1298 178.978 55.1808 179.182 55.2315C181.219 55.7382 182.227 54.9911 181.526 52.74C180.847 50.5612 178.568 50.0555 176.574 49.6668ZM215.198 72.7172C215.368 72.0052 216.36 69.3288 217.031 71.2936C217.134 71.5955 217.147 72.0385 217.16 72.5116C217.194 73.7073 217.233 75.0969 218.751 74.8949C219.535 74.791 219.906 74.0033 220.25 73.2736C220.42 72.912 220.584 72.5645 220.788 72.3212C222.858 69.8515 222.223 74.5228 221.682 75.692C220.49 78.2686 217.153 80.0441 215.498 76.775C214.882 75.5591 214.885 74.0243 215.198 72.7172ZM222.992 62.3299H222.992C223.953 63.4473 225.553 65.3104 226.603 63.961C227.628 62.6437 225.865 60.6025 224.986 59.585C224.947 59.5408 224.911 59.4985 224.876 59.4583C224.851 59.429 224.825 59.3979 224.796 59.3649C224.001 58.4361 221.963 56.0546 220.928 57.8385C220.281 58.9552 221.799 61.0601 222.521 61.7992C222.649 61.9306 222.809 62.1167 222.992 62.3299ZM194.782 84.2495C193.79 83.1093 193.894 80.9961 194.456 79.6767C194.913 78.6023 195.678 79.9322 196.121 80.7021C196.229 80.89 196.318 81.0442 196.379 81.1224C196.577 81.3783 196.862 81.6154 197.155 81.859C197.766 82.3665 198.409 82.9015 198.367 83.6874C198.265 85.6073 195.653 85.2511 194.782 84.2495Z" fill="white"/>
<path fill-rule="evenodd" clip-rule="evenodd" d="M281.134 70.0597C280.046 69.764 278.96 69.4683 277.878 69.1638C275.364 68.4551 277.74 66.8602 279.234 66.9724C280.39 67.0589 281.52 67.4651 282.631 67.8643C283.122 68.0406 283.609 68.2158 284.094 68.3617C288.928 69.8158 293.409 71.4059 297.925 73.6629C298.598 73.9999 301.565 75.5973 299.603 76.3046C298.572 76.676 296.498 75.5582 295.045 74.7756C294.581 74.5255 294.181 74.3097 293.898 74.1874C289.798 72.4166 285.455 71.2351 281.134 70.0597ZM322.184 105.948C306.014 95.8982 289.913 86.0549 271.624 80.2976C270.671 79.9979 270.375 79.1461 270.875 78.3024C271.402 77.413 272.414 77.4456 273.312 77.4745L273.389 77.4771C275.755 77.552 278.066 78.3006 280.304 79.0256L280.589 79.1179C285.706 80.7732 290.579 83.0696 295.385 85.4699C303.81 89.6768 311.918 94.767 319.35 100.555C320.904 101.764 322.496 102.744 324.186 103.733C324.291 103.795 324.4 103.857 324.512 103.922C325.555 104.522 326.849 105.265 327.225 106.431C328.283 109.714 322.943 106.419 322.184 105.948ZM61.0797 102.961C55.1706 107.566 49.3962 112.361 44.0539 117.617C42.1519 119.489 40.5668 121.629 38.9831 123.768C38.2579 124.748 37.5327 125.727 36.7775 126.68C36.6966 126.782 36.6073 126.901 36.5101 127.031C35.9023 127.843 34.993 129.057 34.0009 128.923C32.7384 128.753 32.4832 126.574 32.5234 125.623C32.6613 122.379 35.6188 119.246 37.7278 117.012C40.1003 114.501 42.6368 112.053 45.2272 109.766C48.0791 107.248 51.1743 105.084 54.3283 102.965C55.4809 102.191 56.6155 101.372 57.7526 100.551C59.6702 99.1672 61.5932 97.7794 63.6155 96.5961C65.1327 95.7085 67.6519 95.3708 66.8263 98.0425C66.3439 99.6034 64.4495 100.785 62.7964 101.817C62.1557 102.216 61.5516 102.593 61.0797 102.961ZM39.9146 96.5758C43.2409 95.5384 46.3252 93.9279 49.4095 92.3175C51.4192 91.2681 53.4293 90.2187 55.5059 89.3283C56.9992 88.6875 58.5143 88.1015 60.029 87.5155C61.3915 86.9881 62.7537 86.461 64.1004 85.8945C64.2272 85.8409 64.3645 85.7903 64.5058 85.7378C65.2111 85.4764 66.0115 85.1796 66.1069 84.3471C66.2377 83.1945 65.566 83.2289 64.7454 83.2709H64.745C64.6923 83.2734 64.6388 83.2763 64.5846 83.2785C62.7144 83.3628 60.7368 84.1932 58.868 84.978C58.0966 85.3023 57.3432 85.6187 56.6238 85.8713C55.9832 86.0965 55.3418 86.3162 54.7008 86.5356C52.6933 87.2233 50.6915 87.9093 48.7335 88.7502C46.1283 89.8687 43.4679 91.0259 41.1218 92.636C41.0386 92.6932 40.9519 92.7515 40.863 92.8116C40.0862 93.3354 39.146 93.9695 38.81 94.8347C38.4736 95.6984 38.6589 96.9678 39.9146 96.5758Z" fill="white"/>
<path fill-rule="evenodd" clip-rule="evenodd" d="M177.632 74.3254C177.946 73.4016 181.834 63.3017 180.312 62.9973C178.7 62.674 176.546 68.5341 176.078 69.5929C174.351 73.503 173.329 77.6983 172.528 81.8926C171.969 84.813 171.479 87.8048 171.675 90.7904C171.825 93.085 172.771 93.4325 174.33 94.8384C174.33 87.8689 175.387 80.9221 177.632 74.3254Z" fill="white"/>
</svg>
