<svg width="14" height="12" viewBox="0 0 14 12" fill="none" xmlns="http://www.w3.org/2000/svg">
<path d="M1.43885 4.87402C4.93709 3.34989 7.2698 2.34509 8.43698 1.85962C11.7695 0.473504 12.462 0.232722 12.9133 0.224686C13.0126 0.223023 13.2345 0.247624 13.3783 0.364287C13.4997 0.462795 13.5331 0.595866 13.5491 0.689262C13.5651 0.782659 13.585 0.995418 13.5692 1.16166C13.3886 3.05915 12.6072 7.66384 12.2096 9.78906C12.0414 10.6883 11.7102 10.9898 11.3895 11.0193C10.6927 11.0835 10.1635 10.5588 9.48857 10.1164C8.43241 9.42404 7.83575 8.99307 6.81057 8.31749C5.62579 7.53674 6.39384 7.10762 7.06904 6.40633C7.24574 6.2228 10.3161 3.43004 10.3756 3.1767C10.383 3.14501 10.3899 3.0269 10.3197 2.96454C10.2496 2.90217 10.146 2.9235 10.0713 2.94046C9.96534 2.9645 8.27812 4.07969 5.0096 6.28604C4.53069 6.6149 4.0969 6.77513 3.70825 6.76673C3.27978 6.75747 2.45559 6.52447 1.8429 6.32531C1.09139 6.08102 0.494116 5.95187 0.546126 5.537C0.573216 5.32091 0.870791 5.09992 1.43885 4.87402Z" fill="white"/>
</svg>
