<svg width="32" height="32" viewBox="0 0 32 32" fill="none" xmlns="http://www.w3.org/2000/svg">
<path d="M16.0583 2.6661C8.77828 2.6661 2.84495 8.59943 2.84495 15.8794C2.84495 18.2128 3.45828 20.4794 4.60495 22.4794L2.73828 29.3328L9.73828 27.4928C11.6716 28.5461 13.8449 29.1061 16.0583 29.1061C23.3383 29.1061 29.2716 23.1728 29.2716 15.8928C29.2716 12.3594 27.8983 9.03943 25.4049 6.54609C24.1825 5.31133 22.7265 4.33232 21.1218 3.66616C19.5171 3.00001 17.7958 2.66004 16.0583 2.6661ZM16.0716 4.89276C19.0049 4.89276 21.7516 6.03943 23.8316 8.11943C24.8524 9.1399 25.6617 10.3519 26.2132 11.6858C26.7646 13.0197 27.0472 14.4494 27.0449 15.8928C27.0449 21.9461 22.1116 26.8661 16.0583 26.8661C14.0849 26.8661 12.1516 26.3461 10.4716 25.3328L10.0716 25.1061L5.91161 26.1994L7.01828 22.1461L6.75161 21.7194C5.6502 19.971 5.06763 17.9459 5.07161 15.8794C5.08495 9.82609 10.0049 4.89276 16.0716 4.89276ZM11.3783 9.77276C11.1649 9.77276 10.8049 9.85276 10.4983 10.1861C10.2049 10.5194 9.33828 11.3328 9.33828 12.9461C9.33828 14.5728 10.5249 16.1328 10.6716 16.3594C10.8583 16.5861 13.0183 19.9194 16.3383 21.3328C17.1249 21.6928 17.7383 21.8928 18.2183 22.0394C19.0049 22.2928 19.7249 22.2528 20.2983 22.1728C20.9383 22.0794 22.2449 21.3728 22.5249 20.5994C22.8049 19.8261 22.8049 19.1728 22.7249 19.0261C22.6316 18.8928 22.4183 18.8128 22.0849 18.6661C21.7516 18.4794 20.1249 17.6794 19.8316 17.5728C19.5249 17.4661 19.3383 17.4128 19.0849 17.7328C18.8716 18.0661 18.2316 18.8128 18.0449 19.0261C17.8449 19.2528 17.6583 19.2794 17.3383 19.1194C16.9916 18.9461 15.9249 18.5994 14.6716 17.4794C13.6849 16.5994 13.0316 15.5194 12.8316 15.1861C12.6716 14.8661 12.8183 14.6661 12.9783 14.5194C13.1249 14.3728 13.3383 14.1328 13.4716 13.9328C13.6449 13.7461 13.6983 13.5994 13.8049 13.3861C13.9116 13.1594 13.8583 12.9728 13.7783 12.8128C13.6983 12.6661 13.0316 11.0128 12.7516 10.3594C12.4849 9.71943 12.2183 9.79943 12.0049 9.7861C11.8183 9.7861 11.6049 9.77276 11.3783 9.77276Z" fill="#4FCE5D"/>
</svg>
