<svg width="27" height="27" viewBox="0 0 27 27" fill="none" xmlns="http://www.w3.org/2000/svg">
<g clip-path="url(#clip0_33_1649)">
<path d="M23.4062 2.63143C22.7364 2.01443 20.0259 0.0474259 13.9825 0.0210585C13.9825 0.0210585 6.85801 -0.406093 3.38807 2.77909C1.45798 4.70918 0.777697 7.54104 0.703868 11.0479C0.630039 14.5548 0.54039 21.1255 6.87383 22.908H6.87911L6.87383 25.6291C6.87383 25.6291 6.83165 26.7312 7.55939 26.9527C8.43478 27.2269 8.95158 26.3884 9.79007 25.4867C10.2489 24.991 10.8817 24.2632 11.3616 23.7095C15.6964 24.0734 19.0239 23.2402 19.4036 23.1189C20.279 22.8341 25.2308 22.2013 26.0324 15.6306C26.8656 8.84886 25.6316 4.5668 23.4062 2.63143ZM24.1392 15.1348C23.4589 20.6193 19.4458 20.9673 18.7075 21.2046C18.3911 21.3048 15.4643 22.0326 11.7887 21.7952C11.7887 21.7952 9.04651 25.1017 8.1922 25.9613C7.91271 26.2408 7.60685 26.2144 7.61212 25.6607C7.61212 25.2968 7.63321 21.1413 7.63321 21.1413C7.62794 21.1413 7.62794 21.1413 7.63321 21.1413C2.26482 19.6542 2.58123 14.0591 2.63923 11.1323C2.69724 8.2055 3.25096 5.80606 4.88573 4.19238C7.82306 1.52927 13.8717 1.92478 13.8717 1.92478C18.9817 1.94588 21.4286 3.48573 21.9982 4.00253C23.8808 5.61622 24.8406 9.4764 24.1392 15.1348ZM16.8091 10.8739C16.8302 11.3274 16.1499 11.359 16.1288 10.9055C16.0708 9.74535 15.5276 9.18109 14.4096 9.11781C13.9561 9.09144 13.9983 8.41116 14.4465 8.43753C15.9178 8.51663 16.7352 9.36039 16.8091 10.8739ZM17.8796 11.4698C17.9323 9.23382 16.5348 7.48303 13.8823 7.28791C13.434 7.25627 13.4815 6.57599 13.9297 6.60763C16.9884 6.82912 18.6179 8.93324 18.5599 11.4856C18.5546 11.9391 17.869 11.918 17.8796 11.4698ZM20.3581 12.1764C20.3634 12.6299 19.6778 12.6352 19.6778 12.1817C19.6462 7.88381 16.7827 5.54239 13.3075 5.51602C12.8592 5.51075 12.8592 4.83574 13.3075 4.83574C17.194 4.86211 20.3212 7.54631 20.3581 12.1764ZM19.7622 17.3497V17.3603C19.1927 18.3622 18.1274 19.4696 17.0305 19.1163L17.02 19.1005C15.9073 18.7894 13.2864 17.4394 11.6305 16.121C10.7762 15.446 9.99573 14.6497 9.39456 13.885C8.85139 13.2048 8.30295 12.3979 7.77032 11.4276C6.64707 9.3973 6.39922 8.49026 6.39922 8.49026C6.0459 7.39338 7.14806 6.32814 8.15529 5.7586H8.16584C8.651 5.50548 9.11506 5.58985 9.4262 5.96427C9.4262 5.96427 10.0801 6.74474 10.3596 7.12971C10.6233 7.4883 10.9766 8.06311 11.1612 8.38479C11.4829 8.9596 11.2825 9.54496 10.9661 9.78754L10.3332 10.2938C10.0116 10.5522 10.0537 11.0321 10.0537 11.0321C10.0537 11.0321 10.9924 14.5811 14.4993 15.4776C14.4993 15.4776 14.9792 15.5198 15.2376 15.1981L15.7438 14.5653C15.9864 14.2489 16.5718 14.0485 17.1466 14.3702C17.9218 14.8079 18.9079 15.4882 19.5618 16.1052C19.931 16.4058 20.0153 16.8645 19.7622 17.3497Z" fill="#7F4DA0"/>
</g>
<defs>
<clipPath id="clip0_33_1649">
<rect width="27.0002" height="27.0002" fill="white"/>
</clipPath>
</defs>
</svg>
