<svg width="26" height="26" viewBox="0 0 26 26" fill="none" xmlns="http://www.w3.org/2000/svg">
<g clip-path="url(#clip0_33_1655)">
<path d="M10.8314 25.8564C4.69418 24.7754 0 19.4279 0 13.0005C0 5.85003 5.85003 0 13.0005 0C20.151 0 26 5.85003 26 13.0005C26 19.4279 21.3058 24.7734 15.1666 25.8564L14.4446 25.281H11.5554L10.8314 25.8564Z" fill="url(#paint0_linear_33_1655)"/>
<path d="M18.0564 16.6121L18.6338 13.0009H15.1673V10.4728C15.1673 9.4616 15.5283 8.66677 17.1169 8.66677H18.7784V5.34484C17.839 5.20023 16.8287 5.05664 15.8883 5.05664C12.9274 5.05664 10.8321 6.86272 10.8321 10.1128V13.002H7.58398V16.6131H10.8321V25.7871C12.262 26.0759 13.7353 26.0759 15.1653 25.7871V16.6151L18.0564 16.6121Z" fill="white"/>
</g>
<defs>
<linearGradient id="paint0_linear_33_1655" x1="13.0157" y1="24.8582" x2="13.0157" y2="-0.243568" gradientUnits="userSpaceOnUse">
<stop stop-color="#0062E0"/>
<stop offset="1" stop-color="#19AFFF"/>
</linearGradient>
<clipPath id="clip0_33_1655">
<rect width="26" height="26" fill="white"/>
</clipPath>
</defs>
</svg>
