<svg width="48" height="48" viewBox="0 0 48 48" fill="none" xmlns="http://www.w3.org/2000/svg">
<path d="M24.0005 15L20.7278 18.2727H23.1824V25.6364H24.8187V18.2727H27.2733M28.9096 33H19.0914C18.1833 33 17.4551 32.2636 17.4551 31.3636V21.5455C17.4551 21.1115 17.6275 20.6952 17.9344 20.3884C18.2412 20.0815 18.6575 19.9091 19.0914 19.9091H21.546V21.5455H19.0914V31.3636H28.9096V21.5455H26.4551V19.9091H28.9096C29.3436 19.9091 29.7598 20.0815 30.0667 20.3884C30.3736 20.6952 30.546 21.1115 30.546 21.5455V31.3636C30.546 31.7976 30.3736 32.2138 30.0667 32.5207C29.7598 32.8276 29.3436 33 28.9096 33Z" fill="white" fill-opacity="0.7"/>
</svg>
