<svg width="32" height="32" viewBox="0 0 32 32" fill="none" xmlns="http://www.w3.org/2000/svg">
<g clip-path="url(#clip0_33_1641)">
<path d="M16.5 3C8.89613 3 3 8.57213 3 16.095C3 20.0303 4.61325 23.4323 7.239 25.7812C7.45837 25.977 7.59338 26.2537 7.60013 26.5508L7.67438 28.9538C7.698 29.7199 8.48775 30.2194 9.18975 29.9089L11.8695 28.7276C12.0956 28.6264 12.3521 28.6095 12.5918 28.6736C13.8236 29.0111 15.1331 29.1934 16.5 29.1934C24.1039 29.1934 30 23.6213 30 16.0984C30 8.5755 24.1039 3 16.5 3Z" fill="url(#paint0_radial_33_1641)"/>
<path d="M8.38388 19.9257L12.3495 13.6347C12.9806 12.6324 14.3306 12.386 15.279 13.0947L18.4346 15.4606C18.7249 15.6766 19.1231 15.6766 19.41 15.4572L23.6692 12.224C24.2362 11.792 24.9787 12.4737 24.6007 13.0779L20.6317 19.3655C20.0006 20.3679 18.6506 20.6142 17.7022 19.9055L14.5466 17.5396C14.2564 17.3236 13.8581 17.3236 13.5713 17.543L9.312 20.7762C8.745 21.2082 8.0025 20.5299 8.38388 19.9257Z" fill="white"/>
</g>
<defs>
<radialGradient id="paint0_radial_33_1641" cx="0" cy="0" r="1" gradientUnits="userSpaceOnUse" gradientTransform="translate(8.1975 29.853) scale(29.4192 29.4191)">
<stop stop-color="#0099FF"/>
<stop offset="0.6098" stop-color="#A033FF"/>
<stop offset="0.9348" stop-color="#FF5280"/>
<stop offset="1" stop-color="#FF7061"/>
</radialGradient>
<clipPath id="clip0_33_1641">
<rect width="27" height="27" fill="white" transform="translate(3 3)"/>
</clipPath>
</defs>
</svg>
