<svg width="27" height="27" viewBox="0 0 27 27" fill="none" xmlns="http://www.w3.org/2000/svg">
<g clip-path="url(#clip0_33_1668)">
<path d="M13.5 27C20.9558 27 27 20.9558 27 13.5C27 6.04415 20.9558 0 13.5 0C6.04416 0 0 6.04415 0 13.5C0 20.9558 6.04416 27 13.5 27Z" fill="url(#paint0_linear_33_1668)"/>
<path d="M6.1192 13.3575C10.0547 11.6429 12.679 10.5125 13.9921 9.96634C17.7412 8.40696 18.5202 8.13608 19.028 8.12704C19.1397 8.12517 19.3894 8.15284 19.5511 8.28409C19.6877 8.39491 19.7253 8.54462 19.7432 8.64969C19.7612 8.75476 19.7836 8.99411 19.7658 9.18114C19.5626 11.3158 18.6836 16.4961 18.2363 18.887C18.0471 19.8986 17.6745 20.2378 17.3137 20.271C16.5298 20.3432 15.9344 19.7529 15.1751 19.2552C13.987 18.4763 13.3157 17.9915 12.1624 17.2314C10.8295 16.3531 11.6936 15.8703 12.4532 15.0814C12.6519 14.8749 16.1061 11.7331 16.173 11.4481C16.1814 11.4124 16.1891 11.2795 16.1102 11.2094C16.0312 11.1392 15.9147 11.1632 15.8307 11.1823C15.7115 11.2093 13.8134 12.4639 10.1363 14.9461C9.59751 15.316 9.1095 15.4963 8.67226 15.4868C8.19024 15.4764 7.26303 15.2143 6.57375 14.9902C5.72831 14.7154 5.05637 14.5701 5.11488 14.1034C5.14536 13.8603 5.48013 13.6117 6.1192 13.3575Z" fill="white"/>
</g>
<defs>
<linearGradient id="paint0_linear_33_1668" x1="13.5" y1="0" x2="13.5" y2="26.7997" gradientUnits="userSpaceOnUse">
<stop stop-color="#2AABEE"/>
<stop offset="1" stop-color="#229ED9"/>
</linearGradient>
<clipPath id="clip0_33_1668">
<rect width="27" height="27" fill="white"/>
</clipPath>
</defs>
</svg>
