<svg width="32" height="32" viewBox="0 0 32 32" fill="none" xmlns="http://www.w3.org/2000/svg">
<path d="M29.9441 8.00065C28.9174 8.46732 27.8108 8.77398 26.6641 8.92065C27.8374 8.21398 28.7441 7.09398 29.1708 5.74732C28.0641 6.41398 26.8374 6.88065 25.5441 7.14732C24.4908 6.00065 23.0108 5.33398 21.3308 5.33398C18.1974 5.33398 15.6374 7.89398 15.6374 11.054C15.6374 11.5073 15.6908 11.9473 15.7841 12.3607C11.0374 12.1207 6.81078 9.84065 3.99745 6.38732C3.50411 7.22732 3.22411 8.21398 3.22411 9.25398C3.22411 11.2407 4.22411 13.0007 5.77078 14.0007C4.82411 14.0007 3.94411 13.734 3.17078 13.334V13.374C3.17078 16.1473 5.14411 18.4673 7.75745 18.9873C6.91842 19.2169 6.03757 19.2489 5.18411 19.0807C5.54626 20.2173 6.2555 21.2119 7.21214 21.9246C8.16878 22.6373 9.32471 23.0322 10.5174 23.054C8.49562 24.6546 5.98944 25.5197 3.41078 25.5073C2.95745 25.5073 2.50411 25.4807 2.05078 25.4273C4.58411 27.054 7.59745 28.0007 10.8241 28.0007C21.3308 28.0007 27.1041 19.2807 27.1041 11.7207C27.1041 11.4673 27.1041 11.2273 27.0908 10.974C28.2108 10.174 29.1708 9.16065 29.9441 8.00065Z" fill="#00ACED"/>
</svg>
