<svg width="24" height="24" viewBox="0 0 24 24" fill="none" xmlns="http://www.w3.org/2000/svg">
<path d="M5.43885 11.874C8.93709 10.3499 11.2698 9.34509 12.437 8.85962C15.7695 7.4735 16.462 7.23272 16.9133 7.22469C17.0126 7.22302 17.2345 7.24762 17.3783 7.36429C17.4997 7.4628 17.5331 7.59587 17.5491 7.68926C17.5651 7.78266 17.585 7.99542 17.5692 8.16166C17.3886 10.0591 16.6072 14.6638 16.2096 16.7891C16.0414 17.6883 15.7102 17.9898 15.3895 18.0193C14.6927 18.0835 14.1635 17.5588 13.4886 17.1164C12.4324 16.424 11.8358 15.9931 10.8106 15.3175C9.62579 14.5367 10.3938 14.1076 11.069 13.4063C11.2457 13.2228 14.3161 10.43 14.3756 10.1767C14.383 10.145 14.3899 10.0269 14.3197 9.96454C14.2496 9.90217 14.146 9.9235 14.0713 9.94046C13.9653 9.9645 12.2781 11.0797 9.0096 13.286C8.53069 13.6149 8.0969 13.7751 7.70825 13.7667C7.27978 13.7575 6.45559 13.5245 5.8429 13.3253C5.09139 13.081 4.49412 12.9519 4.54613 12.537C4.57322 12.3209 4.87079 12.0999 5.43885 11.874Z" fill="white"/>
</svg>
