<svg width="24" height="24" viewBox="0 0 24 24" fill="none" xmlns="http://www.w3.org/2000/svg">
<path d="M11.7398 9.05142L11.7699 9.54756L11.2684 9.48681C9.44307 9.25392 7.84838 8.46414 6.49439 7.13771L5.83245 6.47956L5.66195 6.96558C5.30088 8.049 5.53156 9.19317 6.28378 9.9627C6.68496 10.388 6.59469 10.4487 5.90265 10.1956C5.66195 10.1146 5.45133 10.0538 5.43127 10.0842C5.36106 10.1551 5.60177 11.0765 5.79233 11.441C6.0531 11.9473 6.58466 12.4434 7.16637 12.7371L7.65782 12.9699L7.07611 12.9801C6.51445 12.9801 6.4944 12.9902 6.55457 13.2028C6.75516 13.861 7.54749 14.5596 8.43009 14.8634L9.05192 15.076L8.51032 15.4C7.70796 15.8658 6.76519 16.1291 5.82242 16.1493C5.37109 16.1595 5 16.2 5 16.2303C5 16.3316 6.2236 16.8986 6.93569 17.1214C9.07198 17.7795 11.6094 17.496 13.515 16.3721C14.869 15.5722 16.223 13.9825 16.8549 12.4434C17.1959 11.6233 17.5369 10.1247 17.5369 9.40581C17.5369 8.94004 17.567 8.87928 18.1286 8.32239C18.4596 7.99837 18.7705 7.64398 18.8307 7.54273C18.931 7.35035 18.9209 7.35035 18.4094 7.52248C17.5569 7.82624 17.4366 7.78574 17.8578 7.3301C18.1687 7.00608 18.5398 6.41881 18.5398 6.24668C18.5398 6.2163 18.3894 6.26693 18.2189 6.35806C18.0383 6.45931 17.6372 6.61119 17.3363 6.70232L16.7947 6.87445L16.3032 6.54031C16.0324 6.35806 15.6513 6.15555 15.4507 6.0948C14.9392 5.95304 14.1569 5.97329 13.6956 6.1353C12.4419 6.59094 11.6496 7.76549 11.7398 9.05142Z" fill="white"/>
</svg>
