<svg width="24" height="24" viewBox="0 0 24 24" fill="none" xmlns="http://www.w3.org/2000/svg">
<path fill-rule="evenodd" clip-rule="evenodd" d="M17.3633 7.29929C17.9605 7.46397 18.4309 7.94921 18.5905 8.56542C18.8806 9.68222 18.8806 12.0124 18.8806 12.0124C18.8806 12.0124 18.8806 14.3426 18.5905 15.4595C18.4309 16.0757 17.9605 16.5609 17.3633 16.7257C16.2809 17.0249 11.9403 17.0249 11.9403 17.0249C11.9403 17.0249 7.59969 17.0249 6.51724 16.7257C5.91998 16.5609 5.44962 16.0757 5.28999 15.4595C5 14.3426 5 12.0124 5 12.0124C5 12.0124 5 9.68222 5.28999 8.56542C5.44962 7.94921 5.91998 7.46397 6.51724 7.29929C7.59969 7 11.9403 7 11.9403 7C11.9403 7 16.2809 7 17.3633 7.29929ZM10.6406 10.0508V14.4094L14.1108 12.2302L10.6406 10.0508Z" fill="white"/>
</svg>
